<svg width="21" height="21" viewBox="0 0 21 21" fill="none" xmlns="http://www.w3.org/2000/svg">
<path d="M10.5002 20.9167C4.74704 20.9167 0.0834961 16.2532 0.0834961 10.5C0.0834961 4.74692 4.74704 0.083374 10.5002 0.083374C16.2533 0.083374 20.9168 4.74692 20.9168 10.5C20.9168 16.2532 16.2533 20.9167 10.5002 20.9167ZM10.5002 18.8334C12.7103 18.8334 14.8299 17.9554 16.3927 16.3926C17.9555 14.8298 18.8335 12.7102 18.8335 10.5C18.8335 8.2899 17.9555 6.17029 16.3927 4.60748C14.8299 3.04468 12.7103 2.16671 10.5002 2.16671C8.29003 2.16671 6.17041 3.04468 4.60761 4.60748C3.0448 6.17029 2.16683 8.2899 2.16683 10.5C2.16683 12.7102 3.0448 14.8298 4.60761 16.3926C6.17041 17.9554 8.29003 18.8334 10.5002 18.8334ZM15.1877 5.81254L12.5835 12.5834L5.81266 15.1875L8.41683 8.41671L15.1877 5.81254ZM10.5002 11.5417C10.7764 11.5417 11.0414 11.432 11.2367 11.2366C11.4321 11.0413 11.5418 10.7763 11.5418 10.5C11.5418 10.2238 11.4321 9.95882 11.2367 9.76347C11.0414 9.56812 10.7764 9.45837 10.5002 9.45837C10.2239 9.45837 9.95894 9.56812 9.76359 9.76347C9.56824 9.95882 9.4585 10.2238 9.4585 10.5C9.4585 10.7763 9.56824 11.0413 9.76359 11.2366C9.95894 11.432 10.2239 11.5417 10.5002 11.5417Z" fill="black"/>
</svg>
