<svg width="28" height="28" viewBox="0 0 28 28" fill="none" xmlns="http://www.w3.org/2000/svg">
<path d="M15.0955 25.1598C17.8434 24.8101 20.3552 23.4272 22.1202 21.2922C23.8851 19.1571 24.7709 16.4301 24.5974 13.6654C24.424 10.9007 23.2043 8.30576 21.1863 6.40805C19.1683 4.51033 16.5034 3.45223 13.7332 3.4488C10.9597 3.44673 8.28976 4.50225 6.2674 6.40028C4.24504 8.29831 3.02247 10.896 2.84879 13.6641C2.67511 16.4322 3.5634 19.1623 5.33265 21.2983C7.10191 23.4342 9.61899 24.8152 12.371 25.1598V17.071H9.6466V14.3465H12.371V12.0934C12.371 10.2721 12.5617 9.61146 12.9159 8.94534C13.2648 8.28628 13.804 7.74753 14.4634 7.39922C14.9838 7.11997 15.6308 6.95242 16.7614 6.88022C17.2096 6.85161 17.7899 6.88703 18.5024 6.9892V9.57741H17.8199C16.5707 9.57741 16.0545 9.63598 15.7466 9.80081C15.5629 9.89529 15.4133 10.0448 15.3189 10.2285C15.1554 10.5364 15.0955 10.8415 15.0955 12.0921V14.3465H18.501L17.8199 17.071H15.0955V25.1598ZM13.7332 27.9687C6.20972 27.9687 0.111084 21.87 0.111084 14.3465C0.111084 6.82301 6.20972 0.724365 13.7332 0.724365C21.2568 0.724365 27.3554 6.82301 27.3554 14.3465C27.3554 21.87 21.2568 27.9687 13.7332 27.9687Z" fill="black"/>
</svg>
