<svg width="19" height="19" viewBox="0 0 19 19" fill="none" xmlns="http://www.w3.org/2000/svg">
<path d="M15.2292 18.875C14.2622 18.875 13.3349 18.4909 12.6512 17.8072C11.9674 17.1234 11.5833 16.1961 11.5833 15.2292C11.5833 14.2622 11.9674 13.3349 12.6512 12.6512C13.3349 11.9674 14.2622 11.5833 15.2292 11.5833C16.1961 11.5833 17.1234 11.9674 17.8072 12.6512C18.4909 13.3349 18.875 14.2622 18.875 15.2292C18.875 16.1961 18.4909 17.1234 17.8072 17.8072C17.1234 18.4909 16.1961 18.875 15.2292 18.875ZM15.2292 16.7917C15.6436 16.7917 16.041 16.627 16.334 16.334C16.627 16.041 16.7917 15.6436 16.7917 15.2292C16.7917 14.8148 16.627 14.4173 16.334 14.1243C16.041 13.8313 15.6436 13.6667 15.2292 13.6667C14.8148 13.6667 14.4173 13.8313 14.1243 14.1243C13.8313 14.4173 13.6667 14.8148 13.6667 15.2292C13.6667 15.6436 13.8313 16.041 14.1243 16.334C14.4173 16.627 14.8148 16.7917 15.2292 16.7917ZM3.77083 7.41667C3.29206 7.41667 2.81797 7.32236 2.37563 7.13914C1.9333 6.95592 1.53139 6.68737 1.19284 6.34883C0.854293 6.01028 0.585743 5.60837 0.402522 5.16603C0.219302 4.7237 0.125 4.24961 0.125 3.77083C0.125 3.29206 0.219302 2.81797 0.402522 2.37563C0.585743 1.9333 0.854293 1.53139 1.19284 1.19284C1.53139 0.854293 1.9333 0.585743 2.37563 0.402522C2.81797 0.219302 3.29206 0.125 3.77083 0.125C4.73777 0.125 5.6651 0.509114 6.34883 1.19284C7.03255 1.87657 7.41667 2.8039 7.41667 3.77083C7.41667 4.73777 7.03255 5.6651 6.34883 6.34883C5.6651 7.03255 4.73777 7.41667 3.77083 7.41667ZM3.77083 5.33333C4.18523 5.33333 4.58266 5.16871 4.87569 4.87569C5.16871 4.58266 5.33333 4.18523 5.33333 3.77083C5.33333 3.35643 5.16871 2.959 4.87569 2.66598C4.58266 2.37295 4.18523 2.20833 3.77083 2.20833C3.35643 2.20833 2.959 2.37295 2.66598 2.66598C2.37295 2.959 2.20833 3.35643 2.20833 3.77083C2.20833 4.18523 2.37295 4.58266 2.66598 4.87569C2.959 5.16871 3.35643 5.33333 3.77083 5.33333ZM16.8656 0.661458L18.3385 2.13437L2.13542 18.3385L0.6625 16.8656L16.8646 0.661458H16.8656Z" fill="black"/>
</svg>
