<svg width="28" height="28" viewBox="0 0 28 28" fill="none" xmlns="http://www.w3.org/2000/svg">
<path d="M14.3465 10.2599C13.2627 10.2599 12.2232 10.6904 11.4568 11.4568C10.6904 12.2232 10.2599 13.2627 10.2599 14.3465C10.2599 15.4304 10.6904 16.4698 11.4568 17.2362C12.2232 18.0026 13.2627 18.4332 14.3465 18.4332C15.4304 18.4332 16.4698 18.0026 17.2362 17.2362C18.0026 16.4698 18.4332 15.4304 18.4332 14.3465C18.4332 13.2627 18.0026 12.2232 17.2362 11.4568C16.4698 10.6904 15.4304 10.2599 14.3465 10.2599ZM14.3465 7.53544C16.1529 7.53544 17.8854 8.25304 19.1627 9.53036C20.44 10.8077 21.1576 12.5401 21.1576 14.3465C21.1576 16.1529 20.44 17.8854 19.1627 19.1627C17.8854 20.44 16.1529 21.1576 14.3465 21.1576C12.5401 21.1576 10.8077 20.44 9.53036 19.1627C8.25304 17.8854 7.53544 16.1529 7.53544 14.3465C7.53544 12.5401 8.25304 10.8077 9.53036 9.53036C10.8077 8.25304 12.5401 7.53544 14.3465 7.53544ZM23.2009 7.19489C23.2009 7.64649 23.0215 8.0796 22.7022 8.39893C22.3829 8.71826 21.9498 8.89766 21.4982 8.89766C21.0466 8.89766 20.6134 8.71826 20.2941 8.39893C19.9748 8.0796 19.7954 7.64649 19.7954 7.19489C19.7954 6.74329 19.9748 6.31018 20.2941 5.99085C20.6134 5.67152 21.0466 5.49212 21.4982 5.49212C21.9498 5.49212 22.3829 5.67152 22.7022 5.99085C23.0215 6.31018 23.2009 6.74329 23.2009 7.19489ZM14.3465 3.4488C10.9764 3.4488 10.4261 3.45833 8.85816 3.52781C7.79018 3.57821 7.07365 3.72124 6.40889 3.98006C5.81769 4.20891 5.39132 4.48272 4.9377 4.9377C4.51133 5.34963 4.18351 5.85254 3.9787 6.40889C3.71988 7.07638 3.57685 7.79154 3.52781 8.85816C3.45697 10.362 3.4488 10.8879 3.4488 14.3465C3.4488 17.7166 3.45833 18.267 3.52781 19.8349C3.57821 20.9015 3.72124 21.6194 3.9787 22.2828C4.21028 22.8754 4.48272 23.3017 4.93497 23.754C5.39404 24.2117 5.82042 24.4855 6.40617 24.7116C7.0791 24.9718 7.79563 25.1162 8.85816 25.1652C10.362 25.2361 10.8879 25.2443 14.3465 25.2443C17.7166 25.2443 18.267 25.2347 19.8349 25.1652C20.9001 25.1148 21.618 24.9718 22.2828 24.7143C22.8726 24.4841 23.3017 24.2103 23.754 23.7581C24.2131 23.299 24.4869 22.8726 24.713 22.2869C24.9718 21.6153 25.1162 20.8974 25.1652 19.8349C25.2361 18.331 25.2443 17.8052 25.2443 14.3465C25.2443 10.9764 25.2347 10.4261 25.1652 8.85816C25.1148 7.7929 24.9718 7.07365 24.713 6.40889C24.5077 5.85311 24.1805 5.3504 23.7553 4.9377C23.3436 4.51112 22.8406 4.18326 22.2842 3.9787C21.6167 3.71988 20.9001 3.57685 19.8349 3.52781C18.331 3.45697 17.8052 3.4488 14.3465 3.4488ZM14.3465 0.724365C18.0477 0.724365 18.5095 0.737987 19.9616 0.806098C21.4123 0.874209 22.3999 1.1017 23.269 1.43953C24.1681 1.78553 24.9255 2.25413 25.6829 3.01016C26.3756 3.69113 26.9115 4.51485 27.2535 5.42401C27.59 6.29174 27.8188 7.28071 27.887 8.73147C27.951 10.1836 27.9687 10.6454 27.9687 14.3465C27.9687 18.0477 27.9551 18.5095 27.887 19.9616C27.8188 21.4123 27.59 22.3999 27.2535 23.269C26.9125 24.1787 26.3764 25.0026 25.6829 25.6829C25.0017 26.3753 24.1781 26.9113 23.269 27.2535C22.4013 27.59 21.4123 27.8188 19.9616 27.887C18.5095 27.951 18.0477 27.9687 14.3465 27.9687C10.6454 27.9687 10.1836 27.9551 8.73147 27.887C7.28071 27.8188 6.2931 27.59 5.42401 27.2535C4.51449 26.9122 3.69063 26.3762 3.01016 25.6829C2.31735 25.002 1.78135 24.1783 1.43953 23.269C1.1017 22.4013 0.874209 21.4123 0.806098 19.9616C0.742074 18.5095 0.724365 18.0477 0.724365 14.3465C0.724365 10.6454 0.737987 10.1836 0.806098 8.73147C0.874209 7.27935 1.1017 6.2931 1.43953 5.42401C1.7804 4.51429 2.31653 3.69035 3.01016 3.01016C3.69082 2.31711 4.51463 1.78108 5.42401 1.43953C6.2931 1.1017 7.27935 0.874209 8.73147 0.806098C10.1836 0.742074 10.6454 0.724365 14.3465 0.724365Z" fill="black"/>
</svg>
