<svg width="28" height="28" viewBox="0 0 28 28" fill="none" xmlns="http://www.w3.org/2000/svg">
<path d="M14.0399 25.2443C16.9301 25.2443 19.702 24.0961 21.7457 22.0524C23.7895 20.0087 24.9376 17.2368 24.9376 14.3465C24.9376 11.4563 23.7895 8.68439 21.7457 6.64067C19.702 4.59695 16.9301 3.4488 14.0399 3.4488C11.1496 3.4488 8.37775 4.59695 6.33403 6.64067C4.29031 8.68439 3.14216 11.4563 3.14216 14.3465C3.14216 17.2368 4.29031 20.0087 6.33403 22.0524C8.37775 24.0961 11.1496 25.2443 14.0399 25.2443ZM14.0399 27.9687C6.51637 27.9687 0.417725 21.87 0.417725 14.3465C0.417725 6.82301 6.51637 0.724365 14.0399 0.724365C21.5634 0.724365 27.662 6.82301 27.662 14.3465C27.662 21.87 21.5634 27.9687 14.0399 27.9687ZM9.80339 15.9403L6.40058 14.8792C5.66498 14.6544 5.66089 14.1476 6.5654 13.7839L19.8239 8.662C20.5935 8.34869 21.0294 8.74509 20.7801 9.73815L18.5229 20.3907C18.3649 21.1494 17.9086 21.3306 17.2751 20.9805L13.8001 18.4087L12.1805 19.9725C12.0143 20.1332 11.8794 20.2708 11.6233 20.3049C11.3686 20.3403 11.1588 20.264 11.0049 19.8417L9.81974 15.9308L9.80339 15.9417V15.9403Z" fill="black"/>
</svg>
